<svg width="384" height="334" viewBox="0 0 384 334" fill="none" xmlns="http://www.w3.org/2000/svg">
<path d="M205.539 100.637L230.669 124.525L134.909 215.552L40.1487 125.475L135.909 34.4483L174.182 70.8293L192.302 53.6052L135.909 0L3.90909 125.475L134.909 250L266.909 124.525L223.659 83.4126L205.539 100.637Z" fill="#2a4fa1"/>
<path d="M153.149 125.475L248.909 34.4483L343.669 124.525L247.909 215.552L209.583 179.12L191.463 196.344L247.909 250L379.909 124.525L248.909 0L116.909 125.475L160.105 166.536L178.225 149.312L153.149 125.475Z" fill="#2a4fa1"/>
<path d="M35.4545 303H32.7273C32.4432 301.523 31.9105 300.095 31.1293 298.717C30.348 297.325 29.3395 296.075 28.1037 294.967C26.8821 293.845 25.4616 292.957 23.8423 292.304C22.223 291.651 20.4332 291.324 18.473 291.324C15.6037 291.324 12.9616 292.091 10.5469 293.625C8.14631 295.145 6.22159 297.382 4.77273 300.337C3.33807 303.291 2.62074 306.906 2.62074 311.182C2.62074 315.486 3.33807 319.115 4.77273 322.07C6.22159 325.024 8.14631 327.261 10.5469 328.781C12.9616 330.287 15.6037 331.04 18.473 331.04C20.4332 331.04 22.223 330.72 23.8423 330.081C25.4616 329.428 26.8821 328.547 28.1037 327.439C29.3395 326.317 30.348 325.06 31.1293 323.668C31.9105 322.276 32.4432 320.841 32.7273 319.364H35.4545C35.142 321.125 34.5384 322.851 33.6435 324.541C32.7628 326.232 31.598 327.766 30.1491 329.144C28.7145 330.507 27.017 331.594 25.0568 332.403C23.1108 333.199 20.9162 333.597 18.473 333.597C14.8366 333.597 11.6335 332.673 8.86364 330.827C6.09375 328.966 3.92045 326.352 2.34375 322.986C0.78125 319.619 0 315.685 0 311.182C0 306.679 0.78125 302.744 2.34375 299.378C3.92045 296.011 6.09375 293.405 8.86364 291.558C11.6335 289.697 14.8366 288.767 18.473 288.767C20.9162 288.767 23.1108 289.172 25.0568 289.982C27.017 290.777 28.7145 291.857 30.1491 293.22C31.598 294.57 32.7628 296.09 33.6435 297.78C34.5384 299.47 35.142 301.21 35.4545 303Z" fill="#2a4fa1"/>
<path d="M80.4013 311.182C80.4013 315.685 79.62 319.619 78.0575 322.986C76.495 326.338 74.3217 328.945 71.5376 330.805C68.7678 332.666 65.5717 333.597 61.9496 333.597C58.3132 333.597 55.103 332.666 52.3189 330.805C49.549 328.93 47.3828 326.317 45.8203 322.965C44.2578 319.598 43.4766 315.67 43.4766 311.182C43.4766 306.679 44.2578 302.751 45.8203 299.399C47.397 296.047 49.5703 293.44 52.3402 291.58C55.1101 289.705 58.3132 288.767 61.9496 288.767C65.5717 288.767 68.7678 289.697 71.5376 291.558C74.3217 293.419 76.495 296.033 78.0575 299.399C79.62 302.751 80.4013 306.679 80.4013 311.182ZM77.8018 311.182C77.8018 307.134 77.12 303.625 75.7564 300.656C74.407 297.688 72.5391 295.394 70.1527 293.774C67.7663 292.141 65.032 291.324 61.9496 291.324C58.8672 291.324 56.1328 292.134 53.7464 293.753C51.3601 295.358 49.4851 297.652 48.1214 300.635C46.772 303.604 46.0973 307.119 46.0973 311.182C46.0973 315.202 46.7649 318.703 48.1001 321.686C49.4496 324.655 51.3175 326.956 53.7038 328.59C56.0902 330.223 58.8388 331.04 61.9496 331.04C65.032 331.04 67.7663 330.23 70.1527 328.611C72.5391 326.977 74.407 324.676 75.7564 321.707C77.12 318.739 77.8018 315.23 77.8018 311.182Z" fill="#2a4fa1"/>
<path d="M90.8097 289.364H93.7074L110.518 329.165H110.817L127.628 289.364H130.526V333H127.969V295.692H127.713L111.925 333H109.411L93.6222 295.692H93.3665V333H90.8097V289.364Z" fill="#2a4fa1"/>
<path d="M143.134 289.364H146.032L162.843 329.165H163.141L179.952 289.364H182.85V333H180.293V295.692H180.037L164.249 333H161.735L145.946 295.692H145.691V333H143.134V289.364Z" fill="#2a4fa1"/>
<path d="M220.962 289.364H228.867V317.872C228.867 320.997 228.129 323.746 226.651 326.118C225.188 328.49 223.129 330.344 220.472 331.679C217.816 333 214.712 333.661 211.161 333.661C207.596 333.661 204.485 333 201.829 331.679C199.173 330.344 197.113 328.49 195.65 326.118C194.187 323.746 193.455 320.997 193.455 317.872V289.364H201.36V317.212C201.36 319.03 201.758 320.649 202.553 322.07C203.363 323.49 204.499 324.605 205.962 325.415C207.425 326.21 209.158 326.608 211.161 326.608C213.164 326.608 214.897 326.21 216.36 325.415C217.837 324.605 218.974 323.49 219.769 322.07C220.565 320.649 220.962 319.03 220.962 317.212V289.364Z" fill="#2a4fa1"/>
<path d="M272.807 289.364V333H270.208L242.381 294.2H242.125V333H239.462V289.364H242.083L269.909 328.206H270.165V289.364H272.807Z" fill="#2a4fa1"/>
<path d="M288.063 289.364V333H285.4V289.364H288.063Z" fill="#2a4fa1"/>
<path d="M297.795 291.835V289.364H328.37V291.835H314.414V333H311.751V291.835H297.795Z" fill="#2a4fa1"/>
<path d="M333.643 289.364H336.797L350.54 310.415H350.838L364.581 289.364H367.734L352.031 313.206V333H349.347V313.206L333.643 289.364Z" fill="#2a4fa1"/>
<path d="M378.335 333.469C377.042 333.469 375.934 333.014 375.011 332.105C374.087 331.196 373.633 330.088 373.647 328.781C373.633 327.503 374.087 326.409 375.011 325.5C375.934 324.591 377.042 324.136 378.335 324.136C379.585 324.136 380.671 324.591 381.594 325.5C382.532 326.409 383.008 327.503 383.022 328.781C383.008 329.648 382.781 330.436 382.34 331.146C381.914 331.857 381.346 332.425 380.636 332.851C379.94 333.263 379.173 333.469 378.335 333.469Z" fill="#2a4fa1"/>
</svg>
