<svg width="376" height="250" viewBox="0 0 376 250" fill="none" xmlns="http://www.w3.org/2000/svg">
<path fill-rule="evenodd" clip-rule="evenodd" d="M201.63 100.637L226.76 124.525L131 215.552L36.2396 125.475L132 34.4483L170.273 70.8293L188.393 53.6051L150.12 17.2241L132 -4.39209e-05L113.88 17.2241L18.1198 108.251L0 125.475L18.1198 142.699L112.88 232.776L131 250L149.12 232.776L244.88 141.749L263 124.525L244.88 107.301L219.75 83.4125L201.63 100.637Z" fill="#FCFCFC"/>
<path fill-rule="evenodd" clip-rule="evenodd" d="M149.24 125.475L245 34.4483L339.76 124.525L244 215.552L205.674 179.12L187.554 196.344L225.88 232.776L244 250L262.12 232.776L357.88 141.749L376 124.525L357.88 107.301L263.12 17.2241L245 -4.39209e-05L226.88 17.2241L131.12 108.251L113 125.475L131.12 142.699L156.196 166.536L174.316 149.312L149.24 125.475Z" fill="#FCFCFC"/>
</svg>
